<?xml version="1.0" standalone="no"?>
<!DOCTYPE svg PUBLIC "-//W3C//DTD SVG 20010904//EN"
 "http://www.w3.org/TR/2001/REC-SVG-20010904/DTD/svg10.dtd">
<svg version="1.0" xmlns="http://www.w3.org/2000/svg"
 width="626.000000pt" height="626.000000pt" viewBox="0 0 626.000000 626.000000"
 preserveAspectRatio="xMidYMid meet">
<metadata>
Created by potrace 1.13, written by Peter Selinger 2001-2015
</metadata>
<g transform="translate(0.000000,626.000000) scale(0.100000,-0.100000)"
fill="#000000" stroke="none">
<path d="M2085 5256 c-48 -21 -96 -67 -116 -111 -18 -38 -19 -116 -19 -1872
l0 -1833 -69 0 c-62 0 -69 2 -77 23 -5 12 -11 657 -14 1432 l-5 1410 -630 0
c-582 0 -632 -1 -662 -18 -45 -24 -82 -64 -104 -114 -19 -40 -19 -84 -19
-1385 l1 -1343 -186 -3 -185 -2 0 -225 0 -225 3130 0 3130 0 0 225 0 225 -170
2 -171 3 1 1343 c0 1288 0 1345 -18 1385 -11 23 -34 57 -52 74 -66 64 -59 63
-750 61 l-625 -3 -5 -1410 c-3 -775 -9 -1420 -14 -1432 -8 -21 -15 -23 -77
-23 l-69 0 0 1833 c0 1756 -1 1834 -19 1872 -21 46 -67 89 -118 110 -50 21
-2041 22 -2088 1z m1280 -120 c126 -42 219 -100 315 -196 47 -47 92 -99 100
-115 8 -17 24 -46 35 -65 69 -114 104 -300 87 -456 -21 -181 -89 -322 -222
-455 -95 -96 -181 -151 -305 -195 -76 -27 -89 -29 -245 -29 -156 0 -169 2
-245 29 -124 44 -210 99 -305 195 -175 176 -250 392 -221 639 12 95 56 231 92
284 11 14 19 29 19 33 0 15 94 127 142 170 102 90 257 166 377 185 31 5 110 7
176 6 97 -3 135 -9 200 -30z m-2335 -1536 l0 -161 -157 3 -158 3 -3 145 c-1
79 0 150 2 157 4 10 43 13 161 13 l155 0 0 -160z m495 0 l0 -155 -157 -3 -158
-3 0 161 0 161 158 -3 157 -3 0 -155z m3615 0 l0 -161 -157 3 -158 3 -3 135
c-4 198 -21 180 163 180 l155 0 0 -160z m495 138 c3 -13 4 -84 3 -158 l-3
-135 -157 -3 -158 -3 0 161 0 160 155 0 c152 0 155 0 160 -22z m-4607 -675
l-3 -158 -155 0 -155 0 -3 145 c-1 79 0 150 2 157 4 10 43 13 161 13 l156 0
-3 -157z m500 3 c2 -113 -1 -151 -10 -158 -7 -4 -79 -8 -160 -8 l-148 0 0 160
0 161 158 -3 157 -3 3 -149z m3610 -3 l-3 -158 -155 0 -155 0 -1 145 c-1 80 1
151 3 158 4 9 45 12 159 12 l155 0 -3 -157z m500 1 c3 -180 21 -164 -180 -164
l-138 0 0 160 0 161 158 -3 157 -3 3 -151z m-498 -560 l0 -154 -160 0 -160 0
3 153 2 152 150 5 c83 3 153 4 158 2 4 -2 7 -73 7 -158z m-4110 1 l0 -155
-160 0 -160 0 0 155 0 155 160 0 160 0 0 -155z m500 0 l0 -155 -160 0 -160 0
0 155 0 155 160 0 160 0 0 -155z m4107 -2 l2 -153 -160 0 -159 0 0 155 0 156
158 -3 157 -3 2 -152z m-2017 -463 l0 -580 -465 0 -465 0 0 580 0 580 465 0
465 0 0 -580z"/>
<path d="M2947 4884 c-4 -4 -7 -72 -7 -151 l0 -143 -150 0 -150 0 0 -195 0
-194 148 -3 147 -3 3 -147 3 -148 189 0 189 0 3 148 3 147 148 3 147 3 0 194
0 195 -150 0 -149 0 -3 148 -3 147 -181 3 c-99 1 -183 -1 -187 -4z"/>
</g>
</svg>
